<svg xmlns="http://www.w3.org/2000/svg" xmlns:xlink="http://www.w3.org/1999/xlink" width="40" height="40" viewBox="0 0 40 40">
  <defs>
    <clipPath id="clip-path">
      <rect width="40" height="40" fill="none"/>
    </clipPath>
  </defs>
  <g id="cart_1_" data-name="cart (1)" clip-path="url(#clip-path)">
    <g id="cart_1_2" data-name="cart (1)">
      <path id="Path_1" data-name="Path 1" d="M109.509,118.333A10.847,10.847,0,0,1,98.676,107.5c0-.282.022-.557.042-.833H86.176a.833.833,0,0,0-.818.987l2.5,13.333a.833.833,0,0,0,.818.68h22.89a4.167,4.167,0,0,0,4.135-3.65l.227-1.81A10.762,10.762,0,0,1,109.509,118.333Z" transform="translate(-78.676 -98.333)" fill="#a0d9f4"/>
      <g id="Group_1" data-name="Group 1" transform="translate(0 3.333)">
        <circle id="Ellipse_1" data-name="Ellipse 1" cx="4.167" cy="4.167" r="4.167" transform="translate(26.667 28.333)" fill="#a0d9f4"/>
        <circle id="Ellipse_2" data-name="Ellipse 2" cx="4.167" cy="4.167" r="4.167" transform="translate(10 28.333)" fill="#a0d9f4"/>
        <path id="Path_2" data-name="Path 2" d="M34.167,69.333H14.932a5.848,5.848,0,0,1-5.72-4.688L5.15,44.333H.833a.833.833,0,1,1,0-1.667h5a.833.833,0,0,1,.817.667l4.2,20.983a4.178,4.178,0,0,0,4.085,3.35H34.167a.833.833,0,1,1,0,1.667Z" transform="translate(0 -42.666)" fill="#a0d9f4"/>
      </g>
      <circle id="Ellipse_3" data-name="Ellipse 3" cx="9.167" cy="9.167" r="9.167" transform="translate(21.667 0)" fill="#a0d9f4"/>
      <path id="Path_3" data-name="Path 3" d="M324.277,72.223a.833.833,0,0,1-.59-.243l-3.333-3.333a.833.833,0,0,1,1.178-1.178l2.745,2.743,6.077-6.077a.833.833,0,0,1,1.2,1.158l-.021.02-6.667,6.667A.833.833,0,0,1,324.277,72.223Z" transform="translate(-295.111 -58.889)" fill="#fafafa"/>
    </g>
  </g>
</svg>
