<svg xmlns="http://www.w3.org/2000/svg" width="15.349" height="13.655" viewBox="0 0 15.349 13.655">
  <g id="Group_9197" data-name="Group 9197" transform="translate(-43.232 -16.83)">
    <path id="heart" d="M7.674,13.655a.9.9,0,0,1-.593-.223c-.62-.542-1.218-1.052-1.745-1.5l0,0A32.457,32.457,0,0,1,1.522,8.352,5.713,5.713,0,0,1,0,4.613,4.8,4.8,0,0,1,1.218,1.336,4.127,4.127,0,0,1,4.288,0,3.861,3.861,0,0,1,6.7.833a4.934,4.934,0,0,1,.975,1.018A4.934,4.934,0,0,1,8.649.833,3.861,3.861,0,0,1,11.061,0a4.127,4.127,0,0,1,3.07,1.336,4.8,4.8,0,0,1,1.217,3.276,5.712,5.712,0,0,1-1.522,3.739,32.453,32.453,0,0,1-3.81,3.577c-.528.45-1.127.96-1.749,1.5a.9.9,0,0,1-.593.223ZM4.288.9A3.238,3.238,0,0,0,1.879,1.946,3.9,3.9,0,0,0,.9,4.613,4.807,4.807,0,0,0,2.214,7.778a31.94,31.94,0,0,0,3.7,3.466l0,0c.529.451,1.13.963,1.754,1.509.628-.547,1.229-1.06,1.76-1.511a31.948,31.948,0,0,0,3.7-3.466,4.807,4.807,0,0,0,1.315-3.166,3.9,3.9,0,0,0-.98-2.667A3.238,3.238,0,0,0,11.061.9,2.982,2.982,0,0,0,9.2,1.544a4.363,4.363,0,0,0-1.037,1.2.568.568,0,0,1-.975,0,4.359,4.359,0,0,0-1.037-1.2A2.982,2.982,0,0,0,4.288.9Zm0,0" transform="translate(43.232 16.83)"/>
  </g>
</svg>
